<svg width="20" height="20" viewBox="0 0 20 20" fill="none" xmlns="http://www.w3.org/2000/svg">
<path d="M6.5 1H3.5C2.83696 1 2.20107 1.26339 1.73223 1.73223C1.26339 2.20107 1 2.83696 1 3.5C1 4.16304 1.26339 4.79893 1.73223 5.26777C2.20107 5.73661 2.83696 6 3.5 6H6.5C7.16304 6 7.79893 5.73661 8.26777 5.26777C8.73661 4.79893 9 4.16304 9 3.5C9 2.83696 8.73661 2.20107 8.26777 1.73223C7.79893 1.26339 7.16304 1 6.5 1ZM6.5 5H3.5C3.10218 5 2.72064 4.84196 2.43934 4.56066C2.15804 4.27936 2 3.89782 2 3.5C2 3.10218 2.15804 2.72064 2.43934 2.43934C2.72064 2.15804 3.10218 2 3.5 2H6.5C6.89782 2 7.27936 2.15804 7.56066 2.43934C7.84196 2.72064 8 3.10218 8 3.5C8 3.89782 7.84196 4.27936 7.56066 4.56066C7.27936 4.84196 6.89782 5 6.5 5ZM6.5 8H3.5C2.83696 8 2.20107 8.26339 1.73223 8.73223C1.26339 9.20107 1 9.83696 1 10.5V16.5C1 17.163 1.26339 17.7989 1.73223 18.2678C2.20107 18.7366 2.83696 19 3.5 19H6.5C7.16304 19 7.79893 18.7366 8.26777 18.2678C8.73661 17.7989 9 17.163 9 16.5V10.5C9 9.83696 8.73661 9.20107 8.26777 8.73223C7.79893 8.26339 7.16304 8 6.5 8ZM8 16.5C8 16.8978 7.84196 17.2794 7.56066 17.5607C7.27936 17.842 6.89782 18 6.5 18H3.5C3.10218 18 2.72064 17.842 2.43934 17.5607C2.15804 17.2794 2 16.8978 2 16.5V10.5C2 10.1022 2.15804 9.72064 2.43934 9.43934C2.72064 9.15804 3.10218 9 3.5 9H6.5C6.89782 9 7.27936 9.15804 7.56066 9.43934C7.84196 9.72064 8 10.1022 8 10.5V16.5ZM16.5 14H13.5C12.837 14 12.2011 14.2634 11.7322 14.7322C11.2634 15.2011 11 15.837 11 16.5C11 17.163 11.2634 17.7989 11.7322 18.2678C12.2011 18.7366 12.837 19 13.5 19H16.5C17.163 19 17.7989 18.7366 18.2678 18.2678C18.7366 17.7989 19 17.163 19 16.5C19 15.837 18.7366 15.2011 18.2678 14.7322C17.7989 14.2634 17.163 14 16.5 14ZM16.5 18H13.5C13.1022 18 12.7206 17.842 12.4393 17.5607C12.158 17.2794 12 16.8978 12 16.5C12 16.1022 12.158 15.7206 12.4393 15.4393C12.7206 15.158 13.1022 15 13.5 15H16.5C16.8978 15 17.2794 15.158 17.5607 15.4393C17.842 15.7206 18 16.1022 18 16.5C18 16.8978 17.842 17.2794 17.5607 17.5607C17.2794 17.842 16.8978 18 16.5 18ZM16.5 1H13.5C12.837 1 12.2011 1.26339 11.7322 1.73223C11.2634 2.20107 11 2.83696 11 3.5V9.5C11 10.163 11.2634 10.7989 11.7322 11.2678C12.2011 11.7366 12.837 12 13.5 12H16.5C17.163 12 17.7989 11.7366 18.2678 11.2678C18.7366 10.7989 19 10.163 19 9.5V3.5C19 2.83696 18.7366 2.20107 18.2678 1.73223C17.7989 1.26339 17.163 1 16.5 1ZM18 9.5C18 9.89782 17.842 10.2794 17.5607 10.5607C17.2794 10.842 16.8978 11 16.5 11H13.5C13.1022 11 12.7206 10.842 12.4393 10.5607C12.158 10.2794 12 9.89782 12 9.5V3.5C12 3.10218 12.158 2.72064 12.4393 2.43934C12.7206 2.15804 13.1022 2 13.5 2H16.5C16.8978 2 17.2794 2.15804 17.5607 2.43934C17.842 2.72064 18 3.10218 18 3.5V9.5Z" fill="#808080" fill-opacity="0.75" stroke="#808080" stroke-opacity="0.75" stroke-width="0.5"/>
</svg>
