<svg width="40" height="40" viewBox="0 0 40 40" fill="none" xmlns="http://www.w3.org/2000/svg">
<path d="M26.6667 3.33337H13.3333C7.5 3.33337 5 6.66671 5 11.6667V19.1167C5 19.7 5.56667 20.1 6.1 19.9C7.93333 19.1834 10.0167 18.95 12.1667 19.3834C16.5 20.25 19.95 23.8167 20.6667 28.1667C21.1 30.8167 20.5667 33.3334 19.35 35.4167C19.0167 35.9667 19.4167 36.6667 20.0667 36.6667H26.6667C32.5 36.6667 35 33.3334 35 28.3334V11.6667C35 6.66671 32.5 3.33337 26.6667 3.33337ZM30.8333 15.4167H27.5C24.9667 15.4167 22.9167 13.3667 22.9167 10.8334V7.50004C22.9167 6.81671 23.4833 6.25004 24.1667 6.25004C24.85 6.25004 25.4167 6.81671 25.4167 7.50004V10.8334C25.4167 11.9834 26.35 12.9167 27.5 12.9167H30.8333C31.5167 12.9167 32.0833 13.4834 32.0833 14.1667C32.0833 14.85 31.5167 15.4167 30.8333 15.4167Z" fill="#176BEF"/>
<path d="M10.0001 21.6666C5.40008 21.6666 1.66675 25.4 1.66675 30C1.66675 34.6 5.40008 38.3333 10.0001 38.3333C14.6001 38.3333 18.3334 34.6 18.3334 30C18.3334 25.4 14.6001 21.6666 10.0001 21.6666ZM8.60008 32.1166C9.01675 32.5333 9.01675 33.2166 8.60008 33.65C8.38341 33.8666 8.11675 33.9666 7.83341 33.9666C7.55008 33.9666 7.28341 33.8666 7.06675 33.65L4.18341 30.7666C3.76675 30.35 3.76675 29.6666 4.18341 29.2333L7.06675 26.35C7.48341 25.9333 8.16675 25.9333 8.60008 26.35C9.01675 26.7666 9.01675 27.45 8.60008 27.8833L6.48342 30L8.60008 32.1166ZM15.8001 30.7666L12.9167 33.65C12.7001 33.8666 12.4334 33.9666 12.1501 33.9666C11.8667 33.9666 11.6001 33.8666 11.3834 33.65C10.9667 33.2333 10.9667 32.55 11.3834 32.1166L13.5167 30L11.4001 27.8833C10.9834 27.4666 10.9834 26.7833 11.4001 26.35C11.8167 25.9333 12.5001 25.9333 12.9334 26.35L15.8167 29.2333C16.2167 29.6666 16.2167 30.3333 15.8001 30.7666Z" fill="#176BEF"/>
</svg>
