<svg width="60" height="60" viewBox="0 0 60 60" fill="none" xmlns="http://www.w3.org/2000/svg">
<rect width="60" height="60" rx="13.3333" fill="white"/>
<rect x="0.666667" y="0.666667" width="58.6667" height="58.6667" rx="12.6667" stroke="#1F1F1F" stroke-opacity="0.1" stroke-width="1.33333"/>
<path d="M37.9141 34.4287C39.27 34.4287 41.1469 34.7836 42.6553 35.4814C44.2341 36.212 45 37.1071 45 38V41H36.5996V37.2002C36.5996 36.2674 36.3959 35.3943 36.0557 34.5908C36.7497 34.4822 37.3908 34.4287 37.9141 34.4287ZM24.4004 32.7139C26.4118 32.714 29.6899 33.3912 31.833 34.6748C32.6262 35.5724 33 36.4377 33 37.2002V41H15V37.2002C15 36.6354 15.261 36.0794 15.835 35.5205C16.4174 34.9535 17.2693 34.4413 18.2881 34.0107C20.3297 33.148 22.7972 32.7139 24.4004 32.7139ZM37.5996 23.2861C39.4144 23.2861 41 24.8815 41 27C41 29.1184 39.4144 30.7139 37.5996 30.7139C35.785 30.7136 34.2002 29.1183 34.2002 27C34.2002 24.8817 35.7849 23.2864 37.5996 23.2861ZM24.4004 19C26.8781 19.0002 29 21.1713 29 24C29 26.8287 26.8781 28.9998 24.4004 29C21.9225 29 19.7998 26.8288 19.7998 24C19.7998 21.1712 21.9225 19 24.4004 19Z" stroke="#808080" stroke-opacity="0.75" stroke-width="2"/>
</svg>
