<svg width="25" height="26" viewBox="0 0 25 26" fill="none" xmlns="http://www.w3.org/2000/svg">
<path d="M12.5 10.9167C14.8012 10.9167 16.6667 9.0512 16.6667 6.75001C16.6667 4.44882 14.8012 2.58334 12.5 2.58334C10.1989 2.58334 8.33337 4.44882 8.33337 6.75001C8.33337 9.0512 10.1989 10.9167 12.5 10.9167Z" stroke="#808080" stroke-opacity="0.75" stroke-width="1.5"/>
<path d="M20.8307 19.25C20.8333 19.0789 20.8333 18.9052 20.8333 18.7292C20.8333 16.1403 17.1024 14.0417 12.5 14.0417C7.89758 14.0417 4.16663 16.1403 4.16663 18.7292C4.16663 21.318 4.16663 23.4167 12.5 23.4167C14.8239 23.4167 16.4998 23.2534 17.7083 22.9619" stroke="#808080" stroke-opacity="0.75" stroke-width="1.5" stroke-linecap="round"/>
</svg>
